<svg viewBox="0 0 16 25" version="1.1" xmlns="http://www.w3.org/2000/svg" xmlns:xlink="http://www.w3.org/1999/xlink">
    <!-- Generator: Sketch 48.2 (47327) - http://www.bohemiancoding.com/sketch -->
    <title>图形</title>
    <desc>Created with Sketch.</desc>
    <defs>
        <linearGradient x1="62.1023273%" y1="0%" x2="91.0524889%" y2="25.1599668%" id="linearGradient-1">
            <stop stop-color="#2E7EFF" offset="0%"></stop>
            <stop stop-color="#FFFFFF" offset="100%"></stop>
        </linearGradient>
    </defs>
    <g id="首页" stroke="none" stroke-width="1" fill="none" fill-rule="evenodd" transform="translate(-63.000000, -32.000000)">
        <g id="图形" transform="translate(68.500000, 46.000000) scale(-1, 1) rotate(135.000000) translate(-68.500000, -46.000000) translate(56.000000, 36.000000)">
            <path d="M14.6220327,0.751775081 L0.371276569,14.8894299 C-0.48238843,15.7345915 2.9099857,17.8291395 3.12246157,17.6187801 L15.8027327,5.06481881 C16.0152085,4.85445944 16.3376839,4.85445944 16.5501598,5.06481881 L21.597316,10.0616997 C22.3618353,10.8186035 23.601366,10.8186035 24.3658854,10.0616997 C25.1304047,9.3047958 25.1304047,8.07761218 24.3658854,7.32070833 L17.7089097,0.730034266 C16.8517396,-0.0968376322 15.4724222,-0.0901436231 14.6220327,0.751775081 Z" id="Shape" fill="url(#linearGradient-1)" fill-rule="nonzero"></path>
            <path d="M14.6220327,0.751775081 L0.371276569,14.8894299 C-0.0707982795,15.3271012 0.103816852,16.4253733 0.821766654,17.131605 C1.49020791,17.7891362 2.67293827,18.0904085 3.13540062,17.6316165 C3.77485214,16.99724 7.99729617,12.8083074 15.8027327,5.06481881 C16.3317906,4.61289304 17.195006,3.69752832 18.462642,3.48344077 C19.4047267,3.32433469 20.4346811,3.67452431 21.5525052,4.53400963 C20.8051696,3.79411726 19.5239711,2.52612547 17.7089097,0.730034266 C16.8517396,-0.0968376322 15.4724222,-0.0901436231 14.6220327,0.751775081 Z" id="Shape" fill="#FFFFFF" fill-rule="nonzero"></path>
            <ellipse id="Combined-Shape" stroke="#FFFFFF" stroke-width="0.5" cx="14.784" cy="17.6619048" rx="2.352" ry="2.32857143"></ellipse>
        </g>
    </g>
</svg>