<svg xmlns="http://www.w3.org/2000/svg" viewBox="0 0 290.19 409.6">
    <defs>
        <style>.a{fill:#264de4;}.b{fill:#2965f1;}.c{fill:#ebebeb;}.d{fill:#fff;}</style>
    </defs>
    <polygon class="a" points="290.19 80.5 263.75 376.65 144.92 409.6 26.41 376.7 0 80.5 290.19 80.5"/>
    <polygon class="b" points="241.12 357.8 263.71 104.72 145.09 104.72 145.09 384.42 241.12 357.8"/>
    <polygon class="c" points="60.54 214.57 63.8 250.9 145.09 250.9 145.09 214.57 60.54 214.57"/>
    <polygon class="c" points="145.09 141.04 144.97 141.04 54 141.04 57.3 177.37 145.09 177.37 145.09 141.04"/>
    <polygon class="c" points="145.09 346.72 145.09 308.92 144.93 308.96 104.47 298.04 101.89 269.07 82.23 269.07 65.42 269.07 70.51 326.11 144.93 346.77 145.09 346.72"/>
    <path d="M68.29,0h44V18.4H86.69V36.8h25.6V55.2h-44Z" transform="translate(0 0)"/>
    <path d="M121.09,0h44V16h-25.6v3.2h25.6V56h-44V39.2h25.6V36h-25.6Z" transform="translate(0 0)"/>
    <path d="M173.89,0h44V16h-25.6v3.2h25.6V56h-44V39.2h25.6V36h-25.6Z" transform="translate(0 0)"/>
    <polygon class="d"
             points="189.7 250.9 185.49 298.02 144.97 308.95 144.97 346.75 219.44 326.11 219.99 319.97 228.53 224.33 229.41 214.57 235.97 141.04 144.97 141.04 144.97 177.37 196.16 177.37 192.85 214.57 144.97 214.57 144.97 250.9 189.7 250.9"/>
</svg>