<svg xmlns="http://www.w3.org/2000/svg" viewBox="0 0 106 19"><defs><linearGradient id="a" x1="23.931%" x2="76.069%" y1="95.153%" y2="4.846%"><stop offset="0%" stop-color="#FFD400"/><stop offset="21.47%" stop-color="#FF812B"/><stop offset="22.78%" stop-color="#FF7C2E"/><stop offset="39.92%" stop-color="#FF414D"/><stop offset="48.12%" stop-color="#FF2A59"/><stop offset="65.75%" stop-color="#E52A92"/><stop offset="75.63%" stop-color="#D82AAD"/><stop offset="84.83%" stop-color="#C82AD2"/><stop offset="94.63%" stop-color="#B92AF2"/><stop offset="100%" stop-color="#B32AFF"/></linearGradient></defs><g fill="none"><path fill="url(#a)" d="M105.061 4.806h-2.268V2.538h-2.48v2.268h-2.269v2.48h2.269v2.268h2.48V7.286h2.268z"/><path fill="#FFF" d="M.114 4.785h2.859v13.673H.114zm18.276 8.688l.026-.18h-2.88l-.032.114c-.262.938-.675 1.652-1.23 2.122-.557.474-1.248.704-2.11.704-1.253 0-2.191-.396-2.867-1.21-.674-.812-1.016-1.992-1.016-3.51 0-1.388.349-2.487 1.037-3.267.692-.785 1.623-1.166 2.846-1.166.865 0 1.572.224 2.163.684.59.46.974 1.104 1.175 1.968l.028.12h2.883l-.023-.175c-.195-1.517-.854-2.725-1.959-3.593-1.098-.862-2.534-1.3-4.267-1.3-2.152 0-3.858.627-5.07 1.863-1.212 1.236-1.826 2.986-1.826 5.2 0 2.107.616 3.761 1.83 4.918 1.21 1.155 2.931 1.74 5.114 1.74 1.051 0 2.016-.177 2.868-.525a5.565 5.565 0 002.231-1.633l.03-.037a.533.533 0 01.021-.022l.03-.035c.285-.364.504-.767.645-1.19.138-.413.256-.948.352-1.59zM32.047 6.61c-1.204-1.212-2.882-1.826-4.986-1.826-2.105 0-3.786.614-4.998 1.826-1.212 1.212-1.826 2.91-1.826 5.046 0 2.12.614 3.807 1.826 5.01 1.212 1.204 2.893 1.814 4.998 1.814 2.105 0 3.782-.61 4.986-1.814 1.204-1.204 1.814-2.89 1.814-5.01 0-2.136-.61-3.834-1.814-5.046zm-2.19 8.4c-.66.807-1.575 1.199-2.796 1.199-1.222 0-2.14-.389-2.808-1.188-.666-.795-1.004-1.927-1.004-3.365 0-1.453.338-2.594 1.004-3.39.668-.798 1.587-1.187 2.808-1.187 1.19 0 2.097.385 2.774 1.176.673.789 1.014 1.9 1.014 3.305 0 1.485-.334 2.646-.993 3.45zm12.068-7.83c1.088 0 1.92.34 2.474 1.01.426.516.66 1.224.66 1.995v8.335h2.846V9.465c0-2.546-2.172-4.617-4.84-4.617-2.012 0-3.27.854-3.717 1.221l-.621.508V4.909h-2.846V18.52h2.869v-8.335c0-.73.248-1.448.68-1.97.564-.677 1.426-1.035 2.495-1.035zm14.333-2.386H53.81V3.463c0-.732.55-1.115 1.094-1.115h1.379V.05h-2.76a2.56 2.56 0 00-2.553 2.617v2.129h-1.907v2.476h1.84v11.185h2.845V7.272h2.51V4.795zm12.55 1.816c-1.205-1.212-2.883-1.826-4.987-1.826s-3.786.614-4.998 1.826c-1.212 1.212-1.826 2.91-1.826 5.046 0 2.12.614 3.807 1.826 5.01 1.212 1.204 2.893 1.814 4.998 1.814 2.105 0 3.782-.61 4.986-1.814 1.204-1.204 1.815-2.89 1.815-5.01 0-2.136-.61-3.834-1.815-5.046zm-2.192 8.4c-.66.807-1.574 1.199-2.795 1.199-1.222 0-2.14-.389-2.808-1.188-.666-.795-1.004-1.927-1.004-3.365 0-1.453.338-2.594 1.004-3.39.668-.798 1.587-1.187 2.808-1.187 1.19 0 2.097.385 2.774 1.176.673.789 1.014 1.9 1.014 3.305 0 1.485-.334 2.646-.993 3.45zm23.995 3.445h2.411v-2.199h-1.12c-.61 0-1.069-.455-1.069-1.06V7.273h2.189V4.808h-2.189v-2.82h-2.821v2.82h-2.185v2.464h2.185v8.648c0 1.22.993 2.536 2.599 2.536zM78.297 7.181c1.088 0 1.921.34 2.475 1.01.425.516.66 1.224.66 1.995v8.335h2.845V9.465c0-2.546-2.171-4.617-4.84-4.617-2.012 0-3.27.854-3.716 1.221l-.622.508V4.909h-2.845V18.52h2.868v-8.335c0-.73.248-1.448.681-1.97.563-.677 1.426-1.035 2.494-1.035z"/></g></svg>